<?xml version="1.0" encoding="UTF-8"?>
<svg width="24px" height="24px" viewBox="0 0 24 24" version="1.1" xmlns="http://www.w3.org/2000/svg">
    <g stroke="none" stroke-width="1" fill="none" fill-rule="evenodd">
        <path d="M7,2 L7,4 L9,4 L9,2 L17,2 L17,4 L19,4 L19,2 L21,2 L21,22 L3,22 L3,2 L5,2 L5,4 L7,4 L7,2 Z M19,20 L19,8 L5,8 L5,20 L19,20 Z M5,6 L5,4 L3,4 L3,6 L5,6 Z M21,6 L21,4 L19,4 L19,6 L21,6 Z M7,10 L9,10 L9,12 L7,12 L7,10 Z M11,10 L13,10 L13,12 L11,12 L11,10 Z M15,10 L17,10 L17,12 L15,12 L15,10 Z M7,14 L9,14 L9,16 L7,16 L7,14 Z M11,14 L13,14 L13,16 L11,16 L11,14 Z M15,14 L17,14 L17,16 L15,16 L15,14 Z" fill="#000000"></path>
    </g>
</svg>
