<?xml version="1.0" encoding="UTF-8"?>
<svg width="24px" height="24px" viewBox="0 0 24 24" version="1.1" xmlns="http://www.w3.org/2000/svg">
    <g stroke="none" stroke-width="1" fill="none" fill-rule="evenodd">
        <path d="M16,7 L16,18 C16,19.1046 15.1046,20 14,20 L10,20 C8.89543,20 8,19.1046 8,18 L8,7 L5,7 L5,6 L8,6 L10,6 L14,6 L16,6 L19,6 L19,7 L16,7 Z M10,4 L14,4 C14.5523,4 15,4.44772 15,5 L15,6 L9,6 L9,5 C9,4.44772 9.44772,4 10,4 Z M14,8 L14,18 L10,18 L10,8 L14,8 Z M12,10 C11.4477,10 11,10.4477 11,11 L11,15 C11,15.5523 11.4477,16 12,16 C12.5523,16 13,15.5523 13,15 L13,11 C13,10.4477 12.5523,10 12,10 Z" fill="#000000" fill-rule="nonzero"></path>
    </g>
</svg>
