<?xml version="1.0" encoding="UTF-8"?>
<svg width="24px" height="24px" viewBox="0 0 24 24" version="1.1" xmlns="http://www.w3.org/2000/svg">
    <g stroke="none" stroke-width="1" fill="none" fill-rule="evenodd">
        <path d="M8.5,13.5 C10.433,13.5 12,11.933 12,10 C12,8.067 10.433,6.5 8.5,6.5 C6.567,6.5 5,8.067 5,10 C5,11.933 6.567,13.5 8.5,13.5 Z M8.5,11.5 C7.671,11.5 7,10.829 7,10 C7,9.171 7.671,8.5 8.5,8.5 C9.329,8.5 10,9.171 10,10 C10,10.829 9.329,11.5 8.5,11.5 Z M17.5,13.5 C19.433,13.5 21,11.933 21,10 C21,8.067 19.433,6.5 17.5,6.5 C15.567,6.5 14,8.067 14,10 C14,11.933 15.567,13.5 17.5,13.5 Z M17.5,11.5 C16.671,11.5 16,10.829 16,10 C16,9.171 16.671,8.5 17.5,8.5 C18.329,8.5 19,9.171 19,10 C19,10.829 18.329,11.5 17.5,11.5 Z M3,18.5 C3,16.015 5.015,14 7.5,14 L9.5,14 C11.985,14 14,16.015 14,18.5 L14,19 L3,19 L3,18.5 Z M5,17 L12,17 C12,17 12,16.5 12,16.5 C12,17 11.5,16 9.5,16 L7.5,16 C5.5,16 5,17 5,16.5 C5,16.5 5,17 5,17 Z M12,18.5 C12,16.015 14.015,14 16.5,14 L18.5,14 C20.985,14 23,16.015 23,18.5 L23,19 L12,19 L12,18.5 Z M14,17 L21,17 C21,17 21,16.5 21,16.5 C21,17 20.5,16 18.5,16 L16.5,16 C14.5,16 14,17 14,16.5 C14,16.5 14,17 14,17 Z" fill="#000000" fill-rule="nonzero"></path>
    </g>
</svg>
