<?xml version="1.0" encoding="UTF-8"?>
<svg width="24px" height="24px" viewBox="0 0 24 24" version="1.1" xmlns="http://www.w3.org/2000/svg">
    <g stroke="none" stroke-width="1" fill="none" fill-rule="evenodd">
        <path d="M12,2 C6.477,2 2,6.477 2,12 C2,17.523 6.477,22 12,22 C17.523,22 22,17.523 22,12 C22,6.477 17.523,2 12,2 Z M12,4 C16.418,4 20,7.582 20,12 C20,13.597 19.522,15.081 18.712,16.328 C17.995,14.584 16.401,13.377 14.538,13.096 C15.336,12.506 15.833,11.614 15.833,10.625 C15.833,8.899 14.125,7.5 12,7.5 C9.875,7.5 8.167,8.899 8.167,10.625 C8.167,11.614 8.664,12.506 9.462,13.096 C7.599,13.377 6.005,14.584 5.288,16.328 C4.478,15.081 4,13.597 4,12 C4,7.582 7.582,4 12,4 Z" fill="#000000"></path>
    </g>
</svg>
